<svg xmlns="http://www.w3.org/2000/svg" viewBox="0 0 51 22"><path d="M1.93,0v12.79c0,1.26,0.62,1.69,1.24,1.69H3.9c0,0,0.29,0.71,0.41,0.96c0.14,0.32,0.44,0.83,0.44,0.83H2.96C1.18,16.28,0,15.27,0,12.94V0H1.93z"/><path d="M28.46,10.71c0,2.14,1.84,4.03,3.99,4.03c2.14,0,3.99-1.89,3.99-4.03c0-2.31-1.84-4.05-3.99-4.05C30.31,6.66,28.46,8.4,28.46,10.71 M32.45,4.86c3.51,0,6.04,2.7,6.04,5.85c0,3.19-2.4,5.83-6.04,5.83c-3.64,0-6.04-2.63-6.04-5.83C26.41,7.56,28.93,4.86,32.45,4.86"/><path d="M44.97,4.86C43.4,4.86,42,5.41,41,6.29V5h-2v5.62c0,0.03,0,0.06,0,0.09c0,0.03,0,0.06,0,0.09V21h2v-5.81c1,0.84,2.37,1.35,3.97,1.35c3.64,0,6.04-2.63,6.04-5.83C51.01,7.56,48.49,4.86,44.97,4.86z M44.96,14.74c-2.14,0-3.99-1.89-3.99-4.03c0-2.31,1.84-4.05,3.99-4.05c2.14,0,3.99,1.74,3.99,4.05C48.94,12.85,47.1,14.74,44.96,14.74z"/><path fill="#7E7A00" d="M15.06,0.06C9,0.06,4.09,4.97,4.09,11.03C4.09,17.09,9,22,15.06,22c6.06,0,10.97-4.91,10.97-10.97C26.04,4.97,21.12,0.06,15.06,0.06z M15.7,20.73c-5.36,0-9.7-4.34-9.7-9.7c0-5.36,4.34-9.7,9.7-9.7c5.36,0,9.7,4.34,9.7,9.7C25.4,16.39,21.06,20.73,15.7,20.73z"/><path fill="#DCCD00" d="M10.53,3.18c-4.34,2.5-5.82,8.04-3.32,12.38c2.5,4.33,8.05,5.82,12.38,3.32c4.34-2.5,5.82-8.05,3.32-12.38C20.41,2.16,14.87,0.68,10.53,3.18z M19.51,17.46c-3.73,2.15-8.49,0.87-10.64-2.85c-2.15-3.73-0.87-8.49,2.85-10.64c3.73-2.15,8.49-0.87,10.64,2.85C24.51,10.54,23.24,15.31,19.51,17.46z"/><path fill="#F29400" d="M8.87,7.45c-1.98,3.42-0.8,7.8,2.62,9.77c3.42,1.98,7.8,0.8,9.78-2.62c1.98-3.42,0.8-7.8-2.62-9.77C15.22,2.86,10.84,4.03,8.87,7.45z M20.61,13.5c-1.67,2.89-5.36,3.88-8.25,2.21c-2.89-1.67-3.88-5.36-2.21-8.25c1.67-2.89,5.36-3.88,8.25-2.21C21.29,6.91,22.28,10.61,20.61,13.5z"/><path fill="#D40028" d="M9.66,11.03c0,2.99,2.42,5.41,5.41,5.41c2.99,0,5.41-2.42,5.41-5.41c0-2.99-2.42-5.41-5.41-5.41C12.08,5.62,9.66,8.04,9.66,11.03z M19.36,10.39c0,2.37-1.92,4.29-4.29,4.29c-2.37,0-4.29-1.92-4.29-4.29c0-2.37,1.92-4.29,4.29-4.29C17.43,6.1,19.36,8.02,19.36,10.39z"/></svg>