<svg width="750" height="166" viewBox="0 0 750 166" fill="none" xmlns="http://www.w3.org/2000/svg"><path d="M40.855 104.945 142.227 51.58v61.027L40.855 165.974v-61.029Z" fill="#C0CFFF"></path><path d="M0 53.365 101.372 0v61.142L0 114.394V53.365Z" fill="#536DFE"></path><path d="M210.532 120.267c-5.533 0-10.853-.723-15.959-2.17-5.107-1.532-9.108-3.447-12.002-5.745l5.107-9.703c2.979 2.127 6.597 3.83 10.852 5.106 4.256 1.277 8.554 1.916 12.895 1.916 10.725 0 16.087-3.065 16.087-9.193 0-2.043-.724-3.66-2.17-4.851-1.447-1.192-3.277-2.043-5.49-2.554-2.128-.596-5.192-1.234-9.193-1.915-5.447-.851-9.916-1.83-13.405-2.936-3.405-1.107-6.341-2.98-8.81-5.618-2.468-2.638-3.702-6.341-3.702-11.108 0-6.128 2.553-11.022 7.66-14.682 5.107-3.745 11.959-5.617 20.555-5.617 4.511 0 9.023.553 13.534 1.66 4.511 1.106 8.213 2.595 11.107 4.468l-5.234 9.703c-5.533-3.575-12.044-5.362-19.534-5.362-5.192 0-9.15.85-11.874 2.553-2.724 1.703-4.085 3.958-4.085 6.767 0 2.213.766 3.958 2.298 5.234 1.532 1.277 3.404 2.213 5.617 2.81 2.298.595 5.49 1.276 9.576 2.042 5.447.936 9.83 1.958 13.15 3.064 3.405 1.022 6.298 2.809 8.682 5.362 2.383 2.554 3.575 6.129 3.575 10.725 0 6.128-2.639 11.022-7.916 14.682-5.192 3.575-12.299 5.362-21.321 5.362ZM284.578 120.267c-6.894 0-13.065-1.489-18.512-4.468-5.362-2.979-9.575-7.065-12.64-12.257-3.064-5.277-4.596-11.235-4.596-17.874 0-6.639 1.532-12.554 4.596-17.746 3.065-5.277 7.278-9.363 12.64-12.257 5.447-2.979 11.618-4.468 18.512-4.468 6.129 0 11.576 1.234 16.343 3.702 4.851 2.468 8.596 6.043 11.235 10.725l-9.32 6c-2.128-3.234-4.767-5.66-7.916-7.277s-6.639-2.426-10.469-2.426c-4.426 0-8.427.979-12.001 2.937-3.49 1.957-6.256 4.766-8.299 8.426-1.958 3.575-2.937 7.703-2.937 12.384 0 4.767.979 8.98 2.937 12.64 2.043 3.575 4.809 6.341 8.299 8.298 3.574 1.958 7.575 2.937 12.001 2.937 3.83 0 7.32-.809 10.469-2.426 3.149-1.617 5.788-4.043 7.916-7.277l9.32 5.873c-2.639 4.681-6.384 8.298-11.235 10.852-4.767 2.468-10.214 3.702-16.343 3.702ZM328.024 51.835h12.257v67.666h-12.257V51.835Zm6.128-13.023c-2.383 0-4.383-.766-6-2.298-1.532-1.532-2.298-3.404-2.298-5.617s.766-4.086 2.298-5.618c1.617-1.617 3.617-2.426 6-2.426s4.341.766 5.873 2.298c1.617 1.447 2.426 3.277 2.426 5.49 0 2.299-.809 4.256-2.426 5.873-1.532 1.532-3.49 2.298-5.873 2.298ZM399.814 51.197c8.596 0 15.406 2.51 20.427 7.532 5.107 4.937 7.661 12.214 7.661 21.832v38.94h-12.257V81.966c0-6.554-1.575-11.49-4.724-14.81-3.149-3.32-7.66-4.98-13.533-4.98-6.639 0-11.874 1.958-15.704 5.873-3.83 3.83-5.745 9.363-5.745 16.598V119.5h-12.257V51.835h11.746v10.214c2.469-3.49 5.788-6.171 9.959-8.044 4.255-1.872 9.064-2.808 14.427-2.808ZM514.795 51.835v67.666h-11.746v-10.724c-2.724 3.745-6.171 6.596-10.342 8.554-4.17 1.958-8.767 2.936-13.788 2.936-6.554 0-12.427-1.447-17.619-4.34-5.192-2.894-9.278-6.937-12.257-12.129-2.894-5.278-4.34-11.32-4.34-18.13 0-6.809 1.446-12.81 4.34-18.002 2.979-5.192 7.065-9.235 12.257-12.128 5.192-2.894 11.065-4.341 17.619-4.341 4.851 0 9.32.936 13.405 2.808 4.086 1.788 7.49 4.469 10.214 8.044V51.835h12.257Zm-34.855 57.708c4.256 0 8.129-.979 11.618-2.937 3.49-2.042 6.214-4.851 8.171-8.426 1.958-3.66 2.937-7.83 2.937-12.512 0-4.681-.979-8.81-2.937-12.384-1.957-3.66-4.681-6.469-8.171-8.426-3.489-1.958-7.362-2.937-11.618-2.937-4.341 0-8.256.979-11.746 2.937-3.404 1.957-6.128 4.766-8.171 8.426-1.957 3.575-2.936 7.703-2.936 12.384s.979 8.852 2.936 12.512c2.043 3.575 4.767 6.384 8.171 8.426 3.49 1.958 7.405 2.937 11.746 2.937ZM573.861 51.197c6.554 0 12.427 1.447 17.619 4.34 5.192 2.894 9.235 6.937 12.129 12.13 2.979 5.191 4.468 11.192 4.468 18.001 0 6.81-1.489 12.852-4.468 18.13-2.894 5.192-6.937 9.235-12.129 12.129-5.192 2.893-11.065 4.34-17.619 4.34-4.852 0-9.32-.936-13.406-2.808-4-1.873-7.405-4.597-10.213-8.171v34.982h-12.257V51.835h11.746v10.724c2.724-3.745 6.171-6.553 10.341-8.426 4.171-1.958 8.767-2.936 13.789-2.936Zm-1.021 58.346c4.34 0 8.213-.979 11.618-2.937 3.49-2.042 6.213-4.851 8.171-8.426 2.043-3.66 3.064-7.83 3.064-12.512 0-4.681-1.021-8.81-3.064-12.384-1.958-3.66-4.681-6.469-8.171-8.426-3.405-1.958-7.278-2.937-11.618-2.937-4.256 0-8.129 1.022-11.619 3.064-3.404 1.958-6.128 4.724-8.171 8.299-1.957 3.575-2.936 7.703-2.936 12.384s.979 8.852 2.936 12.512c1.958 3.575 4.682 6.384 8.171 8.426 3.49 1.958 7.363 2.937 11.619 2.937ZM644.418 120.267c-5.533 0-10.852-.723-15.959-2.17-5.107-1.532-9.107-3.447-12.001-5.745l5.107-9.703c2.979 2.127 6.596 3.83 10.852 5.106 4.255 1.277 8.554 1.916 12.895 1.916 10.724 0 16.086-3.065 16.086-9.193 0-2.043-.723-3.66-2.17-4.851-1.447-1.192-3.277-2.043-5.49-2.554-2.128-.596-5.192-1.234-9.192-1.915-5.448-.851-9.916-1.83-13.406-2.936-3.405-1.107-6.341-2.98-8.809-5.618-2.469-2.638-3.703-6.341-3.703-11.108 0-6.128 2.554-11.022 7.66-14.682 5.107-3.745 11.959-5.617 20.556-5.617 4.511 0 9.022.553 13.533 1.66 4.511 1.106 8.214 2.595 11.107 4.468l-5.234 9.703c-5.533-3.575-12.044-5.362-19.534-5.362-5.192 0-9.15.85-11.874 2.553-2.723 1.703-4.085 3.958-4.085 6.767 0 2.213.766 3.958 2.298 5.234 1.532 1.277 3.405 2.213 5.618 2.81 2.298.595 5.49 1.276 9.575 2.042 5.447.936 9.831 1.958 13.15 3.064 3.405 1.022 6.299 2.809 8.682 5.362 2.383 2.554 3.575 6.129 3.575 10.725 0 6.128-2.639 11.022-7.916 14.682-5.192 3.575-12.299 5.362-21.321 5.362ZM719.486 109.543c8.086 0 14.597-2.724 19.534-8.171l6.639 7.916c-2.979 3.574-6.767 6.298-11.363 8.171-4.511 1.872-9.575 2.808-15.193 2.808-7.149 0-13.491-1.447-19.023-4.34-5.532-2.98-9.831-7.108-12.895-12.385-2.979-5.277-4.468-11.235-4.468-17.874 0-6.554 1.447-12.47 4.34-17.746 2.979-5.277 7.022-9.363 12.129-12.257 5.192-2.979 11.023-4.468 17.491-4.468 6.129 0 11.704 1.404 16.725 4.213 5.022 2.724 9.023 6.596 12.002 11.618 2.979 5.022 4.511 10.81 4.596 17.363l-53.75 10.47c1.702 4.68 4.553 8.298 8.554 10.852 4.085 2.553 8.979 3.83 14.682 3.83Zm-2.809-48.005c-4.255 0-8.085.979-11.49 2.937-3.32 1.957-5.916 4.723-7.788 8.298-1.873 3.49-2.809 7.576-2.809 12.257v1.276l43.281-8.17c-1.107-4.937-3.575-8.938-7.405-12.002s-8.426-4.596-13.789-4.596Z" fill="#1A237E"></path><path d="m142.227 112.607-101.372-7.66L142.227 51.58v61.027Z" fill="#ABC0FF"></path></svg>